<?xml version="1.0" encoding="UTF-8" standalone="no"?>
<!-- Created with Inkscape (http://www.inkscape.org/) -->

<svg
   width="210mm"
   height="297mm"
   viewBox="0 0 210 297"
   version="1.1"
   id="svg5"
   sodipodi:docname="simonsays.svg"
   xml:space="preserve"
   inkscape:version="1.2.1 (9c6d41e410, 2022-07-14)"
   xmlns:inkscape="http://www.inkscape.org/namespaces/inkscape"
   xmlns:sodipodi="http://sodipodi.sourceforge.net/DTD/sodipodi-0.dtd"
   xmlns="http://www.w3.org/2000/svg"
   xmlns:svg="http://www.w3.org/2000/svg"><sodipodi:namedview
     id="namedview7"
     pagecolor="#ffffff"
     bordercolor="#000000"
     borderopacity="0.25"
     inkscape:showpageshadow="2"
     inkscape:pageopacity="0.0"
     inkscape:pagecheckerboard="0"
     inkscape:deskcolor="#d1d1d1"
     inkscape:document-units="mm"
     showgrid="false"
     inkscape:zoom="0.50646226"
     inkscape:cx="816.44781"
     inkscape:cy="427.47509"
     inkscape:window-width="1920"
     inkscape:window-height="991"
     inkscape:window-x="-9"
     inkscape:window-y="-9"
     inkscape:window-maximized="1"
     inkscape:current-layer="layer1" /><defs
     id="defs2"><rect
       x="324.30847"
       y="673.29795"
       width="97.243179"
       height="18.757568"
       id="rect3648" /><rect
       x="324.30847"
       y="673.29795"
       width="97.243179"
       height="18.757568"
       id="rect7504" /><rect
       x="324.30847"
       y="673.29795"
       width="97.243179"
       height="18.757568"
       id="rect7510" /><rect
       x="324.30847"
       y="673.29795"
       width="97.243179"
       height="18.757568"
       id="rect7516" /><rect
       x="324.30847"
       y="673.29795"
       width="97.243179"
       height="18.757568"
       id="rect7522" /><rect
       x="324.30847"
       y="673.29795"
       width="97.243179"
       height="18.757568"
       id="rect7528" /></defs><g
     inkscape:label="Layer 1"
     inkscape:groupmode="layer"
     id="layer1"><g
       id="panel7636"><path
         style="fill:none;stroke:#000000;stroke-width:1"
         d="M 76.4 200.9 L 94.15 200.9 L 94.15 197.8 L 109.35 197.8 L 109.35 200.9 L 127 200.9 L 127 197.8 L 142.2 197.8 L 142.2 200.9 L 159.85 200.9 L 159.85 197.8 L 175.05 197.8 L 175.05 200.9 L 192.8 200.9"
         id="path452" /><path
         style="fill:none;stroke:#000000;stroke-width:1"
         d="M 192.8 200.9 L 192.8 223.6 L 189.7 223.6 L 189.7 238.4 L 192.8 238.4 L 192.8 261.1"
         id="path454" /><path
         style="fill:none;stroke:#000000;stroke-width:1"
         d="M 192.8 261.1 L 175.05 261.1 L 175.05 264.2 L 159.85 264.2 L 159.85 261.1 L 142.2 261.1 L 142.2 264.2 L 127 264.2 L 127 261.1 L 109.35 261.1 L 109.35 264.2 L 94.15 264.2 L 94.15 261.1 L 76.4 261.1"
         id="path456" /><path
         style="fill:none;stroke:#000000;stroke-width:1"
         d="M 76.4 261.1 L 76.4 238.4 L 79.5 238.4 L 79.5 223.6 L 76.4 223.6 L 76.4 200.9"
         id="path458" /></g><g
       id="panel3751"><path
         style="fill:none;stroke:#000000;stroke-width:1"
         d="M 8.1 79.5 L 30.6 79.5 L 30.6 76.4 L 45.8 76.4 L 45.8 79.5 L 68.3 79.5"
         id="path461" /><path
         style="fill:none;stroke:#000000;stroke-width:1"
         d="M 68.3 79.5 L 68.3 94.15 L 71.4 94.15 L 71.4 109.35 L 68.3 109.35 L 68.3 127 L 71.4 127 L 71.4 142.2 L 68.3 142.2 L 68.3 159.85 L 71.4 159.85 L 71.4 175.05 L 68.3 175.05 L 68.3 189.7"
         id="path463" /><path
         style="fill:none;stroke:#000000;stroke-width:1"
         d="M 68.3 189.7 L 45.8 189.7 L 45.8 192.8 L 30.6 192.8 L 30.6 189.7 L 8.1 189.7"
         id="path465" /><path
         style="fill:none;stroke:#000000;stroke-width:1"
         d="M 8.1 189.7 L 8.1 175.05 L 5 175.05 L 5 159.85 L 8.1 159.85 L 8.1 142.2 L 5 142.2 L 5 127 L 8.1 127 L 8.1 109.35 L 5 109.35 L 5 94.15 L 8.1 94.15 L 8.1 79.5"
         id="path467" /></g><g
       id="panel8604"><path
         style="fill:none;stroke:#000000;stroke-width:1"
         d="M 76.4 76.4 L 94.35 76.4 L 94.35 79.5 L 109.15 79.5 L 109.15 76.4 L 127.2 76.4 L 127.2 79.5 L 142 79.5 L 142 76.4 L 160.05 76.4 L 160.05 79.5 L 174.85 79.5 L 174.85 76.4 L 192.8 76.4"
         id="path470" /><path
         style="fill:none;stroke:#000000;stroke-width:1"
         d="M 192.8 76.4 L 192.8 94.35 L 189.7 94.35 L 189.7 109.15 L 192.8 109.15 L 192.8 127.2 L 189.7 127.2 L 189.7 142 L 192.8 142 L 192.8 160.05 L 189.7 160.05 L 189.7 174.85 L 192.8 174.85 L 192.8 192.8"
         id="path472" /><path
         style="fill:none;stroke:#000000;stroke-width:1"
         d="M 192.8 192.8 L 174.85 192.8 L 174.85 189.7 L 160.05 189.7 L 160.05 192.8 L 142 192.8 L 142 189.7 L 127.2 189.7 L 127.2 192.8 L 109.15 192.8 L 109.15 189.7 L 94.35 189.7 L 94.35 192.8 L 76.4 192.8"
         id="path474" /><path
         style="fill:none;stroke:#000000;stroke-width:1"
         d="M 76.4 192.8 L 76.4 174.85 L 79.5 174.85 L 79.5 160.05 L 76.4 160.05 L 76.4 142 L 79.5 142 L 79.5 127.2 L 76.4 127.2 L 76.4 109.15 L 79.5 109.15 L 79.5 94.35 L 76.4 94.35 L 76.4 76.4"
         id="path476" /></g><g
       id="panel1784"><path
         style="fill:none;stroke:#000000;stroke-width:1"
         d="M 200.9 79.5 L 223.4 79.5 L 223.4 76.4 L 238.6 76.4 L 238.6 79.5 L 261.1 79.5"
         id="path479" /><path
         style="fill:none;stroke:#000000;stroke-width:1"
         d="M 261.1 79.5 L 261.1 94.15 L 264.2 94.15 L 264.2 109.35 L 261.1 109.35 L 261.1 127 L 264.2 127 L 264.2 142.2 L 261.1 142.2 L 261.1 159.85 L 264.2 159.85 L 264.2 175.05 L 261.1 175.05 L 261.1 189.7"
         id="path481" /><path
         style="fill:none;stroke:#000000;stroke-width:1"
         d="M 261.1 189.7 L 238.6 189.7 L 238.6 192.8 L 223.4 192.8 L 223.4 189.7 L 200.9 189.7"
         id="path483" /><path
         style="fill:none;stroke:#000000;stroke-width:1"
         d="M 200.9 189.7 L 200.9 175.05 L 197.8 175.05 L 197.8 159.85 L 200.9 159.85 L 200.9 142.2 L 197.8 142.2 L 197.8 127 L 200.9 127 L 200.9 109.35 L 197.8 109.35 L 197.8 94.15 L 200.9 94.15 L 200.9 79.5"
         id="path485" /></g><g
       id="panel9491"><path
         style="fill:none;stroke:#000000;stroke-width:1"
         d="M 269.2 76.4 L 287.15 76.4 L 287.15 79.5 L 301.95 79.5 L 301.95 76.4 L 320 76.4 L 320 79.5 L 334.8 79.5 L 334.8 76.4 L 352.85 76.4 L 352.85 79.5 L 367.65 79.5 L 367.65 76.4 L 385.6 76.4"
         id="path488" /><path
         style="fill:none;stroke:#000000;stroke-width:1"
         d="m 385.6,76.4 v 17.95 h -3.1 v 14.8 h 5.74583 c 2.4603,6.01667 2.05985,12.03333 0,18.05 H 382.5 V 142 h 5.74583 c 1.8721,6.01667 2.62827,12.03333 0,18.05 H 382.5 v 14.8 h 3.1 v 17.95"
         id="path490"
         sodipodi:nodetypes="cccccccccccccc" /><path
         style="fill:none;stroke:#000000;stroke-width:1"
         d="M 385.6 192.8 L 367.65 192.8 L 367.65 189.7 L 352.85 189.7 L 352.85 192.8 L 334.8 192.8 L 334.8 189.7 L 320 189.7 L 320 192.8 L 301.95 192.8 L 301.95 189.7 L 287.15 189.7 L 287.15 192.8 L 269.2 192.8"
         id="path492" /><path
         style="fill:none;stroke:#000000;stroke-width:1"
         d="M 269.2 192.8 L 269.2 174.85 L 272.3 174.85 L 272.3 160.05 L 269.2 160.05 L 269.2 142 L 272.3 142 L 272.3 127.2 L 269.2 127.2 L 269.2 109.15 L 272.3 109.15 L 272.3 94.35 L 269.2 94.35 L 269.2 76.4"
         id="path494" /></g><g
       id="panel1699"><path
         style="fill:none;stroke:#000000;stroke-width:1"
         d="M 76.4 8.1 L 94.15 8.1 L 94.15 5 L 109.35 5 L 109.35 8.1 L 127 8.1 L 127 5 L 142.2 5 L 142.2 8.1 L 159.85 8.1 L 159.85 5 L 175.05 5 L 175.05 8.1 L 192.8 8.1"
         id="path497" /><path
         style="fill:none;stroke:#000000;stroke-width:1"
         d="M 192.8 8.1 L 192.8 30.8 L 189.7 30.8 L 189.7 45.6 L 192.8 45.6 L 192.8 68.3"
         id="path499" /><path
         style="fill:none;stroke:#000000;stroke-width:1"
         d="M 192.8 68.3 L 175.05 68.3 L 175.05 71.4 L 159.85 71.4 L 159.85 68.3 L 142.2 68.3 L 142.2 71.4 L 127 71.4 L 127 68.3 L 109.35 68.3 L 109.35 71.4 L 94.15 71.4 L 94.15 68.3 L 76.4 68.3"
         id="path501" /><path
         style="fill:none;stroke:#000000;stroke-width:1"
         d="M 76.4 68.3 L 76.4 45.6 L 79.5 45.6 L 79.5 30.8 L 76.4 30.8 L 76.4 8.1"
         id="path503" /></g><circle
       style="fill:none;stroke:#000000;stroke-width:0.202431;stroke-dasharray:none;stroke-opacity:1"
       id="path644"
       cx="302.02765"
       cy="109.48608"
       r="12.398785" /><circle
       style="fill:none;stroke:#000000;stroke-width:0.202431;stroke-dasharray:none;stroke-opacity:1"
       id="circle1826"
       cx="352.77234"
       cy="109.48608"
       r="12.398785" /><circle
       style="fill:none;stroke:#000000;stroke-width:0.202431;stroke-dasharray:none;stroke-opacity:1"
       id="circle1828"
       cx="302.02765"
       cy="156.37666"
       r="12.398785" /><circle
       style="fill:none;stroke:#000000;stroke-width:0.202431;stroke-dasharray:none;stroke-opacity:1"
       id="circle1830"
       cx="352.77234"
       cy="156.37666"
       r="12.398785" /><rect
       style="fill:none;stroke:#000000;stroke-width:0.241127;stroke-dasharray:none;stroke-opacity:1"
       id="rect2610"
       width="19.758875"
       height="12.758873"
       x="87.786598"
       y="47.299088"
       ry="0" /><g
       id="g3452"
       transform="translate(7.4444096,13.564833)"><ellipse
         style="fill:none;stroke:#000000;stroke-width:0.139296;stroke-dasharray:none;stroke-opacity:1"
         id="path3342"
         cx="143.80484"
         cy="42.468636"
         rx="1.430352"
         ry="1.4303522" /><ellipse
         style="fill:none;stroke:#000000;stroke-width:0.139296;stroke-dasharray:none;stroke-opacity:1"
         id="ellipse3344"
         cx="143.80484"
         cy="47.178524"
         rx="1.430352"
         ry="1.4303522" /><ellipse
         style="fill:none;stroke:#000000;stroke-width:0.139296;stroke-dasharray:none;stroke-opacity:1"
         id="ellipse3346"
         cx="143.80484"
         cy="33.048859"
         rx="1.430352"
         ry="1.4303522" /><ellipse
         style="fill:none;stroke:#000000;stroke-width:0.139296;stroke-dasharray:none;stroke-opacity:1"
         id="ellipse3348"
         cx="143.80484"
         cy="37.758747"
         rx="1.430352"
         ry="1.4303522" /><ellipse
         style="fill:none;stroke:#000000;stroke-width:0.139296;stroke-dasharray:none;stroke-opacity:1"
         id="ellipse3364"
         cx="148.18007"
         cy="42.468636"
         rx="1.430352"
         ry="1.4303522" /><ellipse
         style="fill:none;stroke:#000000;stroke-width:0.139296;stroke-dasharray:none;stroke-opacity:1"
         id="ellipse3366"
         cx="148.18007"
         cy="47.178524"
         rx="1.430352"
         ry="1.4303522" /><ellipse
         style="fill:none;stroke:#000000;stroke-width:0.139296;stroke-dasharray:none;stroke-opacity:1"
         id="ellipse3368"
         cx="148.18007"
         cy="33.048859"
         rx="1.430352"
         ry="1.4303522" /><ellipse
         style="fill:none;stroke:#000000;stroke-width:0.139296;stroke-dasharray:none;stroke-opacity:1"
         id="ellipse3370"
         cx="148.18007"
         cy="37.758747"
         rx="1.430352"
         ry="1.4303522" /><ellipse
         style="fill:none;stroke:#000000;stroke-width:0.139296;stroke-dasharray:none;stroke-opacity:1"
         id="ellipse3372"
         cx="152.5553"
         cy="42.468636"
         rx="1.430352"
         ry="1.4303522" /><ellipse
         style="fill:none;stroke:#000000;stroke-width:0.139296;stroke-dasharray:none;stroke-opacity:1"
         id="ellipse3374"
         cx="152.5553"
         cy="47.178524"
         rx="1.430352"
         ry="1.4303522" /><ellipse
         style="fill:none;stroke:#000000;stroke-width:0.139296;stroke-dasharray:none;stroke-opacity:1"
         id="ellipse3376"
         cx="152.5553"
         cy="33.048859"
         rx="1.430352"
         ry="1.4303522" /><ellipse
         style="fill:none;stroke:#000000;stroke-width:0.139296;stroke-dasharray:none;stroke-opacity:1"
         id="ellipse3378"
         cx="152.5553"
         cy="37.758747"
         rx="1.430352"
         ry="1.4303522" /><ellipse
         style="fill:none;stroke:#000000;stroke-width:0.139296;stroke-dasharray:none;stroke-opacity:1"
         id="ellipse3380"
         cx="156.93053"
         cy="42.468636"
         rx="1.430352"
         ry="1.4303522" /><ellipse
         style="fill:none;stroke:#000000;stroke-width:0.139296;stroke-dasharray:none;stroke-opacity:1"
         id="ellipse3382"
         cx="156.93053"
         cy="47.178524"
         rx="1.430352"
         ry="1.4303522" /><ellipse
         style="fill:none;stroke:#000000;stroke-width:0.139296;stroke-dasharray:none;stroke-opacity:1"
         id="ellipse3384"
         cx="156.93053"
         cy="33.048859"
         rx="1.430352"
         ry="1.4303522" /><ellipse
         style="fill:none;stroke:#000000;stroke-width:0.139296;stroke-dasharray:none;stroke-opacity:1"
         id="ellipse3386"
         cx="156.93053"
         cy="37.758747"
         rx="1.430352"
         ry="1.4303522" /><ellipse
         style="fill:none;stroke:#000000;stroke-width:0.139296;stroke-dasharray:none;stroke-opacity:1"
         id="ellipse3388"
         cx="161.30576"
         cy="42.468636"
         rx="1.430352"
         ry="1.4303522" /><ellipse
         style="fill:none;stroke:#000000;stroke-width:0.139296;stroke-dasharray:none;stroke-opacity:1"
         id="ellipse3390"
         cx="161.30576"
         cy="47.178524"
         rx="1.430352"
         ry="1.4303522" /><ellipse
         style="fill:none;stroke:#000000;stroke-width:0.139296;stroke-dasharray:none;stroke-opacity:1"
         id="ellipse3392"
         cx="161.30576"
         cy="33.048859"
         rx="1.430352"
         ry="1.4303522" /><ellipse
         style="fill:none;stroke:#000000;stroke-width:0.139296;stroke-dasharray:none;stroke-opacity:1"
         id="ellipse3394"
         cx="161.30576"
         cy="37.758747"
         rx="1.430352"
         ry="1.4303522" /><ellipse
         style="fill:none;stroke:#000000;stroke-width:0.139296;stroke-dasharray:none;stroke-opacity:1"
         id="ellipse3396"
         cx="165.68098"
         cy="42.468636"
         rx="1.430352"
         ry="1.4303522" /><ellipse
         style="fill:none;stroke:#000000;stroke-width:0.139296;stroke-dasharray:none;stroke-opacity:1"
         id="ellipse3398"
         cx="165.68098"
         cy="47.178524"
         rx="1.430352"
         ry="1.4303522" /><ellipse
         style="fill:none;stroke:#000000;stroke-width:0.139296;stroke-dasharray:none;stroke-opacity:1"
         id="ellipse3400"
         cx="165.68098"
         cy="33.048859"
         rx="1.430352"
         ry="1.4303522" /><ellipse
         style="fill:none;stroke:#000000;stroke-width:0.139296;stroke-dasharray:none;stroke-opacity:1"
         id="ellipse3402"
         cx="165.68098"
         cy="37.758747"
         rx="1.430352"
         ry="1.4303522" /><ellipse
         style="fill:none;stroke:#000000;stroke-width:0.139296;stroke-dasharray:none;stroke-opacity:1"
         id="ellipse3404"
         cx="170.05621"
         cy="42.468636"
         rx="1.430352"
         ry="1.4303522" /><ellipse
         style="fill:none;stroke:#000000;stroke-width:0.139296;stroke-dasharray:none;stroke-opacity:1"
         id="ellipse3406"
         cx="170.05621"
         cy="47.178524"
         rx="1.430352"
         ry="1.4303522" /><ellipse
         style="fill:none;stroke:#000000;stroke-width:0.139296;stroke-dasharray:none;stroke-opacity:1"
         id="ellipse3408"
         cx="170.05621"
         cy="33.048859"
         rx="1.430352"
         ry="1.4303522" /><ellipse
         style="fill:none;stroke:#000000;stroke-width:0.139296;stroke-dasharray:none;stroke-opacity:1"
         id="ellipse3410"
         cx="170.05621"
         cy="37.758747"
         rx="1.430352"
         ry="1.4303522" /><ellipse
         style="fill:none;stroke:#000000;stroke-width:0.139296;stroke-dasharray:none;stroke-opacity:1"
         id="ellipse3412"
         cx="174.43144"
         cy="42.468636"
         rx="1.430352"
         ry="1.4303522" /><ellipse
         style="fill:none;stroke:#000000;stroke-width:0.139296;stroke-dasharray:none;stroke-opacity:1"
         id="ellipse3414"
         cx="174.43144"
         cy="47.178524"
         rx="1.430352"
         ry="1.4303522" /><ellipse
         style="fill:none;stroke:#000000;stroke-width:0.139296;stroke-dasharray:none;stroke-opacity:1"
         id="ellipse3416"
         cx="174.43144"
         cy="33.048859"
         rx="1.430352"
         ry="1.4303522" /><ellipse
         style="fill:none;stroke:#000000;stroke-width:0.139296;stroke-dasharray:none;stroke-opacity:1"
         id="ellipse3418"
         cx="174.43144"
         cy="37.758747"
         rx="1.430352"
         ry="1.4303522" /></g><g
       id="g4758"
       inkscape:export-filename="..\..\..\Desktop\adsadasd.png"
       inkscape:export-xdpi="96"
       inkscape:export-ydpi="96"
       transform="translate(262.90673,-77.163315)"
       style="stroke:#ff0101;stroke-opacity:1"><path
         id="path3359"
         style="fill:none;stroke:#ff0101;stroke-width:0.288145;stroke-opacity:1"
         inkscape:transform-center-y="-2.9855868"
         d="m 64.49326,198.56371 3.536426,9.95269 7.07671,7.96086 -10.613136,-1.99185 -10.613136,1.99185 7.076711,-7.96086 z" /><path
         style="fill:none;stroke:#ff0101;stroke-width:0.288145;stroke-opacity:1;paint-order:normal"
         d="m 64.49326,198.56371 -8.357631,7.11694 -2.255505,10.79661 10.446012,3.53994 10.78026,-3.53994 -2.455917,-10.61176 z"
         id="path3579"
         sodipodi:nodetypes="ccccccc" /></g><text
       xml:space="preserve"
       transform="matrix(0.45619137,0,0,0.45619137,-58.729591,-131.27487)"
       id="text3646"
       style="font-size:14.6667px;font-family:sans-serif;-inkscape-font-specification:sans-serif;white-space:pre;shape-inside:url(#rect3648);fill:#fe0000;fill-opacity:1;stroke:none;stroke-width:0.755906;stroke-dasharray:none;stroke-opacity:1"><tspan
         x="324.30859"
         y="686.27542"
         id="tspan7986">Jökull</tspan></text><text
       xml:space="preserve"
       transform="matrix(0.45619137,0,0,0.45619137,169.7002,-134.93177)"
       id="text7502"
       style="font-size:14.6667px;font-family:sans-serif;-inkscape-font-specification:sans-serif;white-space:pre;shape-inside:url(#rect7504);fill:#fe0000;fill-opacity:1;stroke:none;stroke-width:0.755906;stroke-dasharray:none;stroke-opacity:1"><tspan
         x="324.30859"
         y="686.27542"
         id="tspan7988">Jökull</tspan></text><text
       xml:space="preserve"
       transform="matrix(0.45619137,0,0,0.45619137,61.425793,-134.48633)"
       id="text7508"
       style="font-size:14.6667px;font-family:sans-serif;-inkscape-font-specification:sans-serif;white-space:pre;shape-inside:url(#rect7510);fill:#fe0000;fill-opacity:1;stroke:none;stroke-width:0.755906;stroke-dasharray:none;stroke-opacity:1"><tspan
         x="324.30859"
         y="686.27542"
         id="tspan7990">Jökull</tspan></text><text
       xml:space="preserve"
       transform="matrix(0.45619137,0,0,0.45619137,-58.729591,-92.426993)"
       id="text7514"
       style="font-size:14.6667px;font-family:sans-serif;-inkscape-font-specification:sans-serif;white-space:pre;shape-inside:url(#rect7516);fill:#fe0000;fill-opacity:1;stroke:none;stroke-width:0.755906;stroke-dasharray:none;stroke-opacity:1"><tspan
         x="324.30859"
         y="686.27542"
         id="tspan7992">Jökull</tspan></text><text
       xml:space="preserve"
       transform="matrix(0.45619137,0,0,0.45619137,-106.58594,-214.21486)"
       id="text7520"
       style="font-size:14.6667px;font-family:sans-serif;-inkscape-font-specification:sans-serif;white-space:pre;shape-inside:url(#rect7522);fill:#fe0000;fill-opacity:1;stroke:none;stroke-width:0.755906;stroke-dasharray:none;stroke-opacity:1"><tspan
         x="324.30859"
         y="686.27542"
         id="tspan7994">Jökull</tspan></text><text
       xml:space="preserve"
       transform="matrix(0.45619137,0,0,0.45619137,-60.013606,-292.70102)"
       id="text7526"
       style="font-size:14.6667px;font-family:sans-serif;-inkscape-font-specification:sans-serif;white-space:pre;shape-inside:url(#rect7528);fill:#fe0000;fill-opacity:1;stroke:none;stroke-width:0.755906;stroke-dasharray:none;stroke-opacity:1"><tspan
         x="324.30859"
         y="686.27542"
         id="tspan7996">Jökull</tspan></text></g></svg>
